<svg width="55" height="51" viewBox="0 0 55 51" fill="none" xmlns="http://www.w3.org/2000/svg">
<path d="M29.5938 23.4062V48.5312C29.5938 49.0865 29.3732 49.6191 28.9805 50.0118C28.5879 50.4044 28.0553 50.625 27.5 50.625C26.9447 50.625 26.4121 50.4044 26.0195 50.0118C25.6268 49.6191 25.4062 49.0865 25.4062 48.5312V23.4062C25.4062 22.851 25.6268 22.3184 26.0195 21.9257C26.4121 21.5331 26.9447 21.3125 27.5 21.3125C28.0553 21.3125 28.5879 21.5331 28.9805 21.9257C29.3732 22.3184 29.5938 22.851 29.5938 23.4062ZM46.3438 42.25C45.7885 42.25 45.2559 42.4706 44.8632 42.8632C44.4706 43.2559 44.25 43.7885 44.25 44.3438V48.5312C44.25 49.0865 44.4706 49.6191 44.8632 50.0118C45.2559 50.4044 45.7885 50.625 46.3438 50.625C46.899 50.625 47.4316 50.4044 47.8243 50.0118C48.2169 49.6191 48.4375 49.0865 48.4375 48.5312V44.3438C48.4375 43.7885 48.2169 43.2559 47.8243 42.8632C47.4316 42.4706 46.899 42.25 46.3438 42.25ZM52.625 33.875H48.4375V2.46875C48.4375 1.91345 48.2169 1.3809 47.8243 0.988246C47.4316 0.595591 46.899 0.375 46.3438 0.375C45.7885 0.375 45.2559 0.595591 44.8632 0.988246C44.4706 1.3809 44.25 1.91345 44.25 2.46875V33.875H40.0625C39.5072 33.875 38.9746 34.0956 38.582 34.4882C38.1893 34.8809 37.9688 35.4135 37.9688 35.9688C37.9688 36.524 38.1893 37.0566 38.582 37.4493C38.9746 37.8419 39.5072 38.0625 40.0625 38.0625H52.625C53.1803 38.0625 53.7129 37.8419 54.1055 37.4493C54.4982 37.0566 54.7188 36.524 54.7188 35.9688C54.7188 35.4135 54.4982 34.8809 54.1055 34.4882C53.7129 34.0956 53.1803 33.875 52.625 33.875ZM8.65625 33.875C8.10095 33.875 7.5684 34.0956 7.17575 34.4882C6.78309 34.8809 6.5625 35.4135 6.5625 35.9688V48.5312C6.5625 49.0865 6.78309 49.6191 7.17575 50.0118C7.5684 50.4044 8.10095 50.625 8.65625 50.625C9.21155 50.625 9.7441 50.4044 10.1368 50.0118C10.5294 49.6191 10.75 49.0865 10.75 48.5312V35.9688C10.75 35.4135 10.5294 34.8809 10.1368 34.4882C9.7441 34.0956 9.21155 33.875 8.65625 33.875ZM14.9375 25.5H10.75V2.46875C10.75 1.91345 10.5294 1.3809 10.1368 0.988246C9.7441 0.595591 9.21155 0.375 8.65625 0.375C8.10095 0.375 7.5684 0.595591 7.17575 0.988246C6.78309 1.3809 6.5625 1.91345 6.5625 2.46875V25.5H2.375C1.8197 25.5 1.28715 25.7206 0.894495 26.1132C0.501841 26.5059 0.28125 27.0385 0.28125 27.5938C0.28125 28.149 0.501841 28.6816 0.894495 29.0743C1.28715 29.4669 1.8197 29.6875 2.375 29.6875H14.9375C15.4928 29.6875 16.0254 29.4669 16.418 29.0743C16.8107 28.6816 17.0312 28.149 17.0312 27.5938C17.0312 27.0385 16.8107 26.5059 16.418 26.1132C16.0254 25.7206 15.4928 25.5 14.9375 25.5ZM33.7812 12.9375H29.5938V2.46875C29.5938 1.91345 29.3732 1.3809 28.9805 0.988246C28.5879 0.595591 28.0553 0.375 27.5 0.375C26.9447 0.375 26.4121 0.595591 26.0195 0.988246C25.6268 1.3809 25.4062 1.91345 25.4062 2.46875V12.9375H21.2188C20.6635 12.9375 20.1309 13.1581 19.7382 13.5507C19.3456 13.9434 19.125 14.476 19.125 15.0312C19.125 15.5865 19.3456 16.1191 19.7382 16.5118C20.1309 16.9044 20.6635 17.125 21.2188 17.125H33.7812C34.3365 17.125 34.8691 16.9044 35.2618 16.5118C35.6544 16.1191 35.875 15.5865 35.875 15.0312C35.875 14.476 35.6544 13.9434 35.2618 13.5507C34.8691 13.1581 34.3365 12.9375 33.7812 12.9375Z" fill="#CCF32F"/>
</svg>
