<svg width="1512" height="137" viewBox="0 0 1512 137" fill="none" xmlns="http://www.w3.org/2000/svg">
<rect x="-34.1731" width="1583.89" height="81" transform="rotate(2 -34.1731 0)" fill="#141B34"/>
<path d="M140.892 42.5255C143.062 42.6013 144.74 43.3139 145.927 44.6635C147.114 46.0131 147.658 48.1054 147.559 50.9403L134.801 50.4948L134.752 49.7897L143.664 50.1009C143.73 48.8938 143.671 47.781 143.484 46.7626C143.298 45.7194 142.982 44.8816 142.535 44.2489C142.088 43.6163 141.483 43.2866 140.719 43.2599C139.659 43.2229 138.714 43.7576 137.886 44.864C137.083 45.9467 136.552 47.7176 136.293 50.1767L136.398 50.3655C136.361 50.7097 136.323 51.091 136.284 51.5092C136.246 51.9027 136.219 52.2967 136.206 52.6912C136.146 54.3921 136.355 55.831 136.832 57.0077C137.31 58.1844 137.957 59.0832 138.774 59.7041C139.593 60.3003 140.433 60.6135 141.296 60.6437C141.962 60.6669 142.606 60.5907 143.229 60.415C143.878 60.2155 144.494 59.8791 145.079 59.4059C145.664 58.908 146.194 58.2231 146.668 57.3511L147.398 57.6728C147.073 58.5006 146.588 59.3105 145.943 60.1025C145.298 60.8945 144.486 61.5325 143.507 62.0166C142.528 62.4761 141.398 62.6834 140.116 62.6387C138.39 62.5784 136.9 62.1438 135.645 61.3348C134.39 60.5012 133.443 59.3451 132.804 57.8666C132.164 56.388 131.88 54.6504 131.949 52.6536C132.026 50.4596 132.449 48.5986 133.218 47.0705C133.987 45.5424 135.027 44.394 136.337 43.6252C137.673 42.8327 139.191 42.4661 140.892 42.5255ZM157.115 43.6104L157.088 44.3869C156.62 44.3705 156.234 44.4681 155.93 44.6797C155.626 44.8912 155.591 45.1985 155.824 45.6015L165.156 60.3662C165.506 60.9461 165.836 61.3896 166.146 61.6966C166.482 61.9798 166.87 62.1784 167.31 62.2925L167.283 63.0691C166.988 63.0341 166.545 62.9939 165.955 62.9486C165.389 62.8795 164.811 62.8346 164.219 62.814C163.406 62.7856 162.554 62.7805 161.665 62.7988C160.777 62.7925 160.123 62.7943 159.703 62.8044L159.73 62.0278C160.223 62.0451 160.621 61.9479 160.925 61.7364C161.229 61.5002 161.252 61.1925 160.994 60.8132L151.662 46.0485C151.217 45.3666 150.85 44.8972 150.563 44.6403C150.301 44.3597 149.95 44.187 149.508 44.1222L149.535 43.3456C149.854 43.3815 150.321 43.4348 150.936 43.5056C151.551 43.5518 152.155 43.5852 152.747 43.6059C153.56 43.6343 154.386 43.6508 155.225 43.6554C156.09 43.6363 156.72 43.6212 157.115 43.6104ZM157.184 53.3127C157.184 53.3127 157.193 53.387 157.213 53.5358C157.257 53.6854 157.301 53.8474 157.344 54.0217C157.412 54.1968 157.446 54.2844 157.446 54.2844L154.779 57.4863C154.084 58.3259 153.7 59.0776 153.627 59.7415C153.555 60.3807 153.76 60.8815 154.241 61.2438C154.722 61.6061 155.393 61.8393 156.253 61.9434L156.227 62.683C155.784 62.6428 155.279 62.6129 154.712 62.5931C154.146 62.5486 153.592 62.5169 153.049 62.498C152.508 62.4544 152.04 62.4257 151.646 62.4119C151.079 62.3921 150.573 62.3868 150.128 62.396C149.684 62.3805 149.277 62.3909 148.905 62.4273L148.931 61.6878C149.428 61.6064 149.929 61.3771 150.436 60.9999C150.968 60.5989 151.595 59.979 152.315 59.1403L157.184 53.3127ZM167.099 43.959L167.073 44.6986C166.577 44.7799 166.037 45.0326 165.455 45.4565C164.897 45.8813 164.308 46.4901 163.688 47.283L159.276 52.7564C159.276 52.7564 159.254 52.6815 159.21 52.5319C159.191 52.3585 159.16 52.197 159.116 52.0473C159.072 51.8977 159.05 51.8229 159.05 51.8229L161.724 48.3991C162.319 47.6054 162.7 46.94 162.867 46.4028C163.034 45.8656 162.963 45.4312 162.653 45.0996C162.344 44.7679 161.747 44.5619 160.861 44.4816L160.887 43.7421C161.552 43.79 162.142 43.8353 162.659 43.878C163.201 43.9216 163.767 43.9537 164.359 43.9744C164.926 43.9942 165.432 43.9995 165.876 43.9903C166.321 43.9812 166.728 43.9707 167.099 43.959ZM175.743 43.8536L174.952 66.5208C174.914 67.6055 175.197 68.3435 175.8 68.7348C176.403 69.1261 177.247 69.3406 178.332 69.3785L178.305 70.155C177.739 70.1106 176.951 70.0461 175.942 69.9615C174.933 69.9015 173.848 69.8513 172.69 69.8109C171.876 69.7825 171.075 69.7668 170.285 69.7639C169.494 69.7857 168.889 69.8015 168.469 69.8116L168.496 69.035C169.359 69.0652 169.969 68.9137 170.326 68.5806C170.707 68.2731 170.914 67.6632 170.945 66.7511L171.595 48.1515C171.634 47.0421 171.477 46.2222 171.125 45.6916C170.775 45.1363 170.082 44.8406 169.046 44.8045L169.073 44.0279C169.86 44.1294 170.622 44.1931 171.362 44.2189C172.175 44.2473 172.953 44.2375 173.695 44.1894C174.438 44.1166 175.121 44.0047 175.743 43.8536ZM181.627 43.948C182.909 43.9928 184.042 44.3902 185.028 45.1404C186.039 45.8668 186.817 46.9183 187.361 48.2948C187.906 49.6713 188.143 51.3703 188.072 53.3917C188.02 54.8708 187.799 56.2699 187.407 57.5891C187.016 58.8835 186.446 60.0237 185.696 61.0094C184.971 61.9714 184.068 62.7297 182.988 63.2843C181.908 63.8143 180.641 64.0538 179.186 64.0031C178.102 63.9652 177.148 63.6974 176.327 63.1998C175.529 62.703 174.971 62.0911 174.651 61.3642L175.038 60.8594C175.337 61.4869 175.764 62.0077 176.317 62.4219C176.895 62.837 177.615 63.0596 178.478 63.0898C179.76 63.1345 180.772 62.7626 181.516 61.9741C182.284 61.1618 182.841 60.0582 183.186 58.6634C183.532 57.2439 183.736 55.6344 183.799 53.8348C183.87 51.8134 183.778 50.1812 183.526 48.9383C183.274 47.6708 182.862 46.7431 182.29 46.1555C181.719 45.5432 181.015 45.2224 180.176 45.1931C179.067 45.1544 178.041 45.5628 177.098 46.4185C176.179 47.2749 175.59 48.5872 175.331 50.3552L174.989 49.5658C175.374 47.7281 176.163 46.3241 177.357 45.3539C178.576 44.3598 180 43.8912 181.627 43.948ZM197.778 35.1083L196.886 60.6597C196.849 61.6951 197.022 62.4045 197.404 62.7881C197.81 63.1725 198.494 63.3815 199.455 63.4151L199.428 64.1916C199.01 64.1523 198.357 64.1048 197.471 64.0492C196.585 63.9689 195.698 63.9133 194.811 63.8823C193.923 63.8513 193.023 63.8445 192.109 63.862C191.221 63.8556 190.554 63.857 190.11 63.8662L190.137 63.0897C191.098 63.1232 191.782 62.962 192.19 62.606C192.622 62.2509 192.856 61.5556 192.892 60.5203L193.629 39.4061C193.668 38.2968 193.512 37.4768 193.16 36.9462C192.809 36.391 192.116 36.0953 191.081 36.0591L191.108 35.2826C191.894 35.3841 192.657 35.4478 193.396 35.4736C194.21 35.502 194.988 35.4921 195.73 35.444C196.473 35.3712 197.156 35.2593 197.778 35.1083ZM210.768 44.9657C212.42 45.0233 213.875 45.4197 215.133 46.1547C216.39 46.8897 217.376 48.0101 218.088 49.5159C218.801 51.0217 219.115 52.9702 219.032 55.3614C218.948 57.7526 218.498 59.6744 217.683 61.1268C216.868 62.5546 215.807 63.5912 214.501 64.2367C213.196 64.8575 211.718 65.1391 210.066 65.0814C208.439 65.0246 206.984 64.6406 205.7 63.9293C204.418 63.1935 203.42 62.085 202.707 60.6038C202.019 59.0989 201.717 57.1508 201.8 54.7596C201.884 52.3684 202.321 50.4462 203.112 48.9929C203.928 47.5405 205.001 46.492 206.332 45.8474C207.663 45.2027 209.141 44.9088 210.768 44.9657ZM210.743 45.7052C209.461 45.6604 208.387 46.3634 207.522 47.8141C206.658 49.2401 206.168 51.6048 206.053 54.9081C205.937 58.2115 206.261 60.6045 207.024 62.0874C207.787 63.5456 208.81 64.2971 210.092 64.3418C211.349 64.3857 212.409 63.707 213.273 62.3056C214.162 60.8804 214.664 58.5162 214.779 55.2129C214.895 51.9096 214.559 49.516 213.771 48.0323C213.009 46.5248 212 45.7491 210.743 45.7052ZM233.906 45.7736C234.62 45.7986 235.219 45.9676 235.702 46.2806C236.209 46.5945 236.578 46.99 236.808 47.467C237.064 47.9202 237.182 48.4303 237.162 48.9972C237.137 49.7121 236.894 50.3207 236.432 50.8229C235.996 51.3013 235.42 51.528 234.705 51.503C234.089 51.4815 233.565 51.2781 233.134 50.8928C232.728 50.5084 232.536 49.9957 232.559 49.3548C232.578 48.8125 232.729 48.3611 233.013 48.0008C233.323 47.6167 233.666 47.3202 234.044 47.1113C233.804 46.9054 233.512 46.8088 233.166 46.8214C232.499 46.8228 231.875 47.0232 231.293 47.4225C230.713 47.7971 230.214 48.298 229.797 48.9252C229.381 49.5277 229.05 50.1825 228.803 50.8897C228.556 51.5968 228.422 52.2585 228.4 52.8748L228.103 61.3796C228.061 62.5876 228.366 63.4127 229.017 63.855C229.668 64.2727 230.586 64.5022 231.769 64.5435L231.742 65.32C231.176 65.2756 230.363 65.2225 229.304 65.1608C228.271 65.0754 227.174 65.0124 226.016 64.972C225.128 64.941 224.24 64.9346 223.351 64.953C222.462 64.9466 221.784 64.9476 221.314 64.9559L221.342 64.1794C222.303 64.2129 222.987 64.0517 223.395 63.6957C223.827 63.3406 224.061 62.6453 224.097 61.61L224.502 49.999C224.541 48.8897 224.385 48.0697 224.033 47.5392C223.682 46.9839 222.989 46.6882 221.954 46.652L221.981 45.8755C222.767 45.977 223.53 46.0407 224.27 46.0665C225.108 46.0958 225.885 46.0859 226.603 46.0369C227.346 45.9641 228.029 45.8522 228.651 45.7012L228.502 49.9536C228.823 49.249 229.242 48.5726 229.758 47.9242C230.274 47.2758 230.885 46.7541 231.59 46.3592C232.295 45.9395 233.067 45.7444 233.906 45.7736ZM247.239 46.2392C249.408 46.315 251.086 47.0276 252.273 48.3772C253.46 49.7268 254.004 51.8191 253.905 54.654L241.148 54.2085L241.098 53.5034L250.01 53.8146C250.077 52.6075 250.017 51.4947 249.83 50.4763C249.645 49.4331 249.328 48.5953 248.881 47.9626C248.435 47.33 247.829 47.0003 247.065 46.9736C246.005 46.9366 245.061 47.4713 244.232 48.5777C243.429 49.6604 242.898 51.4312 242.64 53.8904L242.744 54.0791C242.708 54.4234 242.67 54.8046 242.63 55.2229C242.592 55.6164 242.566 56.0104 242.552 56.4049C242.493 58.1058 242.701 59.5447 243.179 60.7214C243.656 61.8981 244.303 62.7969 245.121 63.4178C245.939 64.014 246.78 64.3272 247.643 64.3574C248.308 64.3806 248.952 64.3044 249.576 64.1287C250.224 63.9292 250.841 63.5928 251.425 63.1196C252.01 62.6217 252.54 61.9368 253.015 61.0648L253.744 61.3865C253.419 62.2143 252.934 63.0242 252.289 63.8162C251.645 64.6082 250.832 65.2462 249.853 65.7303C248.874 66.1898 247.744 66.3971 246.462 66.3524C244.737 66.2921 243.246 65.8575 241.991 65.0485C240.737 64.2149 239.79 63.0588 239.15 61.5803C238.511 60.1017 238.226 58.3641 238.296 56.3673C238.372 54.1733 238.795 52.3123 239.564 50.7842C240.333 49.2561 241.373 48.1077 242.683 47.3389C244.019 46.5464 245.538 46.1798 247.239 46.2392Z" fill="white"/>
<path d="M417.071 72.051C416.036 72.0149 415.155 71.7867 414.429 71.3664C413.704 70.9462 413.168 70.3845 412.822 69.6813C412.477 68.9781 412.319 68.1828 412.35 67.2954C412.388 66.2107 412.665 65.3442 413.181 64.6958C413.699 64.0228 414.347 63.4901 415.125 63.0977C415.929 62.7061 416.767 62.3898 417.639 62.1488C418.537 61.884 419.372 61.6416 420.145 61.4218C420.943 61.1782 421.595 60.8924 422.1 60.5645C422.63 60.2375 422.905 59.7905 422.924 59.2235L423.012 56.709C423.043 55.8216 422.92 55.1138 422.642 54.5858C422.39 54.034 422.021 53.6386 421.536 53.3995C421.075 53.1612 420.512 53.0305 419.846 53.0073C419.279 52.9875 418.672 53.0527 418.025 53.2028C417.379 53.3284 416.863 53.6189 416.477 54.0743C417.014 54.2412 417.448 54.5525 417.777 55.0083C418.132 55.4403 418.299 55.9767 418.276 56.6177C418.252 57.3079 417.999 57.8421 417.517 58.2202C417.06 58.5991 416.486 58.7765 415.795 58.7524C415.031 58.7257 414.472 58.4717 414.119 57.9904C413.766 57.4845 413.601 56.911 413.624 56.2701C413.647 55.6045 413.826 55.0678 414.161 54.6599C414.521 54.2528 414.979 53.8739 415.534 53.5231C416.139 53.1493 416.903 52.8428 417.824 52.6035C418.771 52.365 419.811 52.2656 420.945 52.3052C422.005 52.3422 422.912 52.4973 423.668 52.7705C424.449 53.0199 425.089 53.4125 425.589 53.9483C426.186 54.5368 426.567 55.2659 426.734 56.1356C426.902 56.9806 426.965 58.0071 426.923 59.215L426.567 69.4208C426.545 70.0371 426.604 70.4834 426.742 70.7597C426.906 71.0123 427.173 71.145 427.543 71.1579C427.789 71.1665 428.026 71.1131 428.252 70.9976C428.503 70.8829 428.792 70.7079 429.122 70.4726L429.469 71.1141C428.937 71.5151 428.395 71.8294 427.844 72.057C427.318 72.2854 426.648 72.3855 425.835 72.3571C425.046 72.3295 424.409 72.1839 423.925 71.9201C423.44 71.6564 423.083 71.286 422.853 70.809C422.647 70.3329 422.557 69.7497 422.581 69.0595C421.904 70.0725 421.112 70.8346 420.206 71.346C419.299 71.8573 418.254 72.0923 417.071 72.051ZM418.908 70.3381C419.598 70.3622 420.246 70.1874 420.851 69.8136C421.482 69.4407 422.069 68.8688 422.614 68.0981L422.871 60.7396C422.586 61.1245 422.18 61.4559 421.652 61.7336C421.125 61.9867 420.56 62.2508 419.958 62.526C419.356 62.8011 418.777 63.1265 418.221 63.5019C417.691 63.8536 417.242 64.3193 416.877 64.8989C416.511 65.4785 416.312 66.2243 416.28 67.1364C416.247 68.0978 416.466 68.8706 416.94 69.4549C417.414 70.0144 418.07 70.3088 418.908 70.3381ZM448.853 43.876L447.982 68.8358C447.943 69.9452 448.099 70.7774 448.45 71.3327C448.826 71.8641 449.52 72.1475 450.531 72.1828L450.503 72.9593C449.742 72.8587 448.979 72.795 448.215 72.7684C447.377 72.7391 446.586 72.7485 445.844 72.7966C445.127 72.8456 444.456 72.958 443.833 73.1337L444.705 48.1739C444.744 47.0646 444.575 46.2442 444.198 45.7127C443.848 45.1575 443.167 44.8622 442.156 44.8269L442.183 44.0504C442.97 44.1519 443.732 44.2155 444.472 44.2414C445.286 44.2698 446.063 44.2599 446.805 44.2118C447.548 44.139 448.231 44.0271 448.853 43.876ZM440.206 52.9778C441.29 53.0157 442.268 53.2843 443.139 53.7837C444.035 54.2839 444.648 55.0951 444.979 56.2174L444.521 56.6086C444.207 55.7091 443.724 55.0505 443.073 54.6328C442.422 54.1905 441.677 53.9547 440.839 53.9255C439.434 53.8764 438.261 54.5882 437.321 56.061C436.382 57.5091 435.871 59.7866 435.787 62.8936C435.715 64.9397 435.829 66.622 436.129 67.9406C436.429 69.2346 436.901 70.2013 437.545 70.8408C438.214 71.4812 439.029 71.8182 439.991 71.8518C440.952 71.8854 441.829 71.5087 442.622 70.7219C443.439 69.936 443.948 68.7814 444.15 67.2581L444.455 68.0463C444.15 69.714 443.513 70.9875 442.545 71.8669C441.577 72.7217 440.304 73.1215 438.727 73.0664C437.223 73.0139 435.904 72.61 434.77 71.8546C433.662 71.0754 432.826 69.9356 432.261 68.4349C431.697 66.9097 431.455 65.0131 431.534 62.7451C431.613 60.5018 432.047 58.6535 432.839 57.2003C433.655 55.7232 434.705 54.6368 435.988 53.9412C437.271 53.2455 438.677 52.9244 440.206 52.9778ZM470.136 54.5413L470.11 55.2808C469.639 55.3384 469.187 55.5695 468.753 55.9739C468.345 56.3546 467.951 57.0319 467.572 58.0059L461.182 73.4803C460.984 73.4734 460.775 73.4661 460.553 73.4584C460.356 73.4515 460.159 73.4446 459.961 73.4377L453.803 56.8217C453.443 55.8465 453.068 55.2534 452.681 55.0424C452.319 54.8076 452.002 54.6855 451.731 54.6761L451.758 53.8995C452.348 53.9695 452.95 54.0399 453.565 54.1107C454.205 54.1577 454.907 54.1946 455.671 54.2213C456.436 54.248 457.237 54.2636 458.076 54.2682C458.941 54.2491 459.744 54.2277 460.485 54.2043L460.458 54.9808C459.866 54.9601 459.335 54.9786 458.864 55.0362C458.418 55.0947 458.114 55.3062 457.953 55.6708C457.818 56.0116 457.883 56.6186 458.149 57.4917L462.297 69.1136L461.991 69.3991L466.152 59.4372C466.556 58.4641 466.731 57.6804 466.678 57.0862C466.626 56.4673 466.383 56.0022 465.949 55.6909C465.517 55.3549 464.882 55.1476 464.046 55.0691L464.072 54.3295C464.49 54.3688 464.871 54.4068 465.215 54.4435C465.585 54.4564 465.93 54.4808 466.249 54.5166C466.595 54.5287 466.952 54.5412 467.322 54.5541C467.864 54.573 468.37 54.5783 468.839 54.5701C469.333 54.5626 469.765 54.553 470.136 54.5413ZM480.004 54.3676C482.173 54.4433 483.851 55.156 485.038 56.5056C486.225 57.8552 486.769 59.9474 486.67 62.7824L473.913 62.3369L473.864 61.6317L482.775 61.9429C482.842 60.7358 482.782 59.6231 482.596 58.6046C482.41 57.5615 482.094 56.7236 481.647 56.091C481.2 55.4583 480.594 55.1286 479.83 55.102C478.77 55.0649 477.826 55.5996 476.998 56.7061C476.195 57.7887 475.664 59.5596 475.405 62.0187L475.51 62.2075C475.473 62.5518 475.435 62.933 475.396 63.3512C475.357 63.7448 475.331 64.1388 475.317 64.5332C475.258 66.2342 475.467 67.673 475.944 68.8497C476.421 70.0264 477.069 70.9252 477.886 71.5461C478.704 72.1424 479.545 72.4556 480.408 72.4857C481.073 72.5089 481.718 72.4327 482.341 72.257C482.99 72.0576 483.606 71.7212 484.19 71.248C484.775 70.7501 485.305 70.0652 485.78 69.1932L486.509 69.5148C486.184 70.3427 485.699 71.1526 485.055 71.9445C484.41 72.7365 483.598 73.3746 482.618 73.8587C481.64 74.3181 480.509 74.5255 479.228 74.4807C477.502 74.4205 476.012 73.9859 474.756 73.1769C473.502 72.3433 472.555 71.1872 471.916 69.7086C471.276 68.2301 470.991 66.4924 471.061 64.4956C471.138 62.3016 471.561 60.4406 472.33 58.9125C473.099 57.3844 474.139 56.236 475.449 55.4673C476.785 54.6747 478.303 54.3082 480.004 54.3676ZM502.299 55.1461C503.285 55.1806 504.081 55.3441 504.688 55.6368C505.32 55.9057 505.838 56.2693 506.242 56.7277C506.669 57.2116 506.956 57.8263 507.103 58.5719C507.275 59.3183 507.338 60.3202 507.294 61.5774L506.948 71.4873C506.912 72.5227 507.085 73.2322 507.466 73.6157C507.872 74.0001 508.556 74.2091 509.518 74.2427L509.491 75.0192C509.072 74.9799 508.42 74.9325 507.533 74.8768C506.648 74.7965 505.773 74.7413 504.911 74.7112C504.072 74.6819 503.233 74.6773 502.393 74.6973C501.579 74.6936 500.962 74.6967 500.542 74.7067L500.569 73.9302C501.407 73.9595 502.005 73.7952 502.363 73.4375C502.721 73.0798 502.919 72.3833 502.955 71.3479L503.337 60.4026C503.362 59.6877 503.323 59.0446 503.219 58.4733C503.117 57.8773 502.874 57.3999 502.492 57.041C502.11 56.6575 501.525 56.4519 500.736 56.4244C499.824 56.3925 499.002 56.623 498.269 57.1157C497.56 57.6093 496.981 58.3048 496.53 59.2023C496.104 60.0759 495.872 61.0674 495.833 62.1768L495.522 71.0883C495.486 72.1237 495.634 72.8323 495.966 73.2141C496.323 73.5968 496.908 73.8024 497.722 73.8308L497.695 74.6073C497.301 74.5689 496.698 74.5231 495.885 74.4701C495.098 74.3932 494.273 74.3397 493.411 74.3096C492.572 74.2803 491.696 74.2744 490.783 74.2919C489.87 74.2847 489.191 74.2857 488.746 74.2948L488.773 73.5183C489.735 73.5519 490.419 73.3906 490.826 73.0346C491.258 72.6795 491.493 71.9842 491.529 70.9489L491.934 59.338C491.973 58.2286 491.816 57.4087 491.465 56.8781C491.114 56.3228 490.421 56.0271 489.385 55.991L489.413 55.2144C490.199 55.3159 490.962 55.3796 491.701 55.4054C492.539 55.4347 493.317 55.4248 494.035 55.3759C494.778 55.3031 495.46 55.1912 496.083 55.0401L495.942 59.0707C496.636 57.5646 497.549 56.5229 498.68 55.9453C499.835 55.3686 501.042 55.1022 502.299 55.1461ZM518.377 50.1172L518.163 56.2554L523.266 56.4336L523.24 57.1732L518.137 56.995L517.629 71.5271C517.594 72.5379 517.754 73.2592 518.109 73.6912C518.464 74.1232 518.987 74.3512 519.677 74.3753C520.318 74.3977 520.894 74.1587 521.405 73.6582C521.941 73.1586 522.415 72.299 522.828 71.0793L523.522 71.3627C523.18 72.6589 522.611 73.7497 521.815 74.6351C521.045 75.4968 519.932 75.9022 518.478 75.8514C517.64 75.8221 516.941 75.6866 516.382 75.445C515.822 75.228 515.339 74.9149 514.934 74.5059C514.411 73.9199 514.065 73.2291 513.895 72.4334C513.726 71.6376 513.664 70.5865 513.709 69.28L514.143 56.8555L510.741 56.7367L510.767 55.9972L514.169 56.116L514.358 50.7173C515.123 50.7193 515.84 50.6826 516.509 50.6073C517.179 50.5073 517.801 50.3439 518.377 50.1172ZM542.086 56.6466L541.544 72.1401C541.506 73.2495 541.662 74.0817 542.013 74.637C542.389 75.1684 543.083 75.4518 544.093 75.4871L544.066 76.2636C543.304 76.163 542.542 76.0993 541.777 76.0727C540.964 76.0442 540.186 76.0541 539.444 76.1022C538.702 76.1504 538.019 76.2623 537.396 76.438L537.537 72.4074C536.869 73.865 535.969 74.8949 534.837 75.4971C533.731 76.0755 532.574 76.3436 531.366 76.3014C530.454 76.2696 529.682 76.1069 529.051 75.8133C528.418 75.5444 527.9 75.1931 527.496 74.7594C527.069 74.2509 526.783 73.6115 526.637 72.8413C526.492 72.0464 526.44 71.0573 526.481 69.8741L526.807 60.5557C526.846 59.4464 526.689 58.6265 526.337 58.0959C525.987 57.5406 525.293 57.2449 524.258 57.2087L524.285 56.4322C525.071 56.5337 525.834 56.5974 526.574 56.6232C527.387 56.6516 528.165 56.6418 528.907 56.5936C529.65 56.5208 530.333 56.4089 530.955 56.2579L530.439 71.0489C530.414 71.7638 530.44 72.4188 530.518 73.0139C530.596 73.6089 530.814 74.0855 531.172 74.4435C531.529 74.8016 532.115 74.9948 532.929 75.0232C533.791 75.0533 534.565 74.8212 535.248 74.3267C535.957 73.8332 536.524 73.1495 536.949 72.2758C537.374 71.4021 537.606 70.4106 537.645 69.3013L537.937 60.9444C537.976 59.8351 537.819 59.0151 537.468 58.4845C537.117 57.9293 536.424 57.6336 535.388 57.5974L535.415 56.8209C536.202 56.9224 536.965 56.9861 537.704 57.0119C538.518 57.0403 539.295 57.0304 540.038 56.9823C540.781 56.9095 541.463 56.7976 542.086 56.6466ZM558.429 57.1062C559.143 57.1312 559.742 57.3002 560.225 57.6132C560.732 57.9271 561.101 58.3226 561.331 58.7996C561.587 59.2528 561.705 59.7628 561.685 60.3298C561.66 61.0447 561.417 61.6533 560.955 62.1555C560.519 62.6339 559.943 62.8606 559.228 62.8356C558.612 62.8141 558.088 62.6107 557.657 62.2254C557.251 61.841 557.059 61.3283 557.082 60.6874C557.101 60.1451 557.252 59.6937 557.536 59.3334C557.846 58.9493 558.189 58.6528 558.567 58.4439C558.327 58.238 558.034 58.1414 557.689 58.154C557.022 58.1554 556.398 58.3558 555.816 58.7551C555.236 59.1297 554.737 59.6306 554.32 60.2578C553.904 60.8603 553.573 61.5151 553.326 62.2223C553.079 62.9294 552.945 63.5911 552.923 64.2074L552.626 72.7122C552.584 73.9202 552.889 74.7453 553.54 75.1876C554.191 75.6053 555.109 75.8348 556.292 75.8761L556.265 76.6526C555.699 76.6082 554.886 76.5551 553.827 76.4934C552.793 76.408 551.697 76.345 550.539 76.3046C549.651 76.2736 548.763 76.2672 547.874 76.2855C546.985 76.2792 546.307 76.2802 545.837 76.2885L545.865 75.512C546.826 75.5455 547.51 75.3843 547.918 75.0283C548.35 74.6732 548.584 73.9779 548.62 72.9425L549.025 61.3316C549.064 60.2223 548.908 59.4023 548.556 58.8717C548.205 58.3165 547.512 58.0208 546.477 57.9846L546.504 57.2081C547.29 57.3096 548.053 57.3733 548.792 57.3991C549.631 57.4284 550.408 57.4185 551.126 57.3695C551.869 57.2967 552.552 57.1848 553.174 57.0338L553.025 61.2862C553.346 60.5816 553.765 59.9052 554.281 59.2568C554.797 58.6084 555.408 58.0867 556.113 57.6918C556.818 57.2721 557.59 57.0769 558.429 57.1062ZM571.761 57.5718C573.931 57.6476 575.609 58.3602 576.796 59.7098C577.983 61.0594 578.527 63.1517 578.428 65.9866L565.671 65.5411L565.621 64.8359L574.533 65.1471C574.6 63.9401 574.54 62.8273 574.353 61.8088C574.167 60.7657 573.851 59.9278 573.404 59.2952C572.957 58.6626 572.352 58.3329 571.588 58.3062C570.528 58.2692 569.584 58.8039 568.755 59.9103C567.952 60.993 567.421 62.7638 567.163 65.223L567.267 65.4117C567.23 65.756 567.192 66.1372 567.153 66.5555C567.115 66.949 567.089 67.343 567.075 67.7374C567.015 69.4384 567.224 70.8772 567.702 72.054C568.179 73.2307 568.826 74.1295 569.644 74.7504C570.462 75.3466 571.303 75.6598 572.165 75.69C572.831 75.7132 573.475 75.637 574.099 75.4613C574.747 75.2618 575.364 74.9254 575.948 74.4522C576.533 73.9543 577.063 73.2694 577.538 72.3974L578.267 72.7191C577.942 73.5469 577.457 74.3568 576.812 75.1488C576.167 75.9408 575.355 76.5788 574.376 77.0629C573.397 77.5224 572.267 77.7297 570.985 77.685C569.259 77.6247 567.769 77.1901 566.514 76.3811C565.26 75.5475 564.313 74.3914 563.673 72.9129C563.034 71.4343 562.749 69.6967 562.819 67.6999C562.895 65.5059 563.318 63.6448 564.087 62.1168C564.856 60.5887 565.896 59.4403 567.206 58.6715C568.542 57.879 570.061 57.5124 571.761 57.5718Z" fill="white"/>
<path d="M743.115 54.1518L742.223 79.7033C742.187 80.7386 742.36 81.4481 742.741 81.8316C743.147 82.216 743.831 82.425 744.792 82.4586L744.765 83.2351C744.347 83.1958 743.695 83.1484 742.808 83.0927C741.922 83.0124 741.036 82.9568 740.148 82.9258C739.261 82.8948 738.36 82.8881 737.446 82.9055C736.558 82.8992 735.892 82.9006 735.447 82.9097L735.474 82.1332C736.435 82.1668 737.12 82.0056 737.527 81.6496C737.959 81.2944 738.193 80.5992 738.229 79.5638L738.967 58.4497C739.005 57.3403 738.849 56.5204 738.497 55.9898C738.146 55.4345 737.453 55.1388 736.418 55.1027L736.445 54.3262C737.231 54.4277 737.994 54.4913 738.734 54.5171C739.547 54.5456 740.325 54.5357 741.067 54.4876C741.81 54.4148 742.493 54.3029 743.115 54.1518ZM764.561 64.4155L764.02 79.9091C763.981 81.0184 764.137 81.8507 764.488 82.406C764.865 82.9374 765.558 83.2208 766.569 83.2561L766.542 84.0326C765.78 83.932 765.017 83.8683 764.253 83.8416C763.439 83.8132 762.662 83.8231 761.92 83.8712C761.177 83.9193 760.495 84.0312 759.872 84.2069L760.012 80.1764C759.344 81.634 758.445 82.6639 757.313 83.2661C756.207 83.8445 755.05 84.1126 753.842 84.0704C752.93 84.0386 752.158 83.8759 751.526 83.5823C750.894 83.3134 750.376 82.9621 749.971 82.5284C749.545 82.0199 749.258 81.3805 749.113 80.6103C748.967 79.8154 748.916 78.8263 748.957 77.643L749.282 68.3247C749.321 67.2154 749.165 66.3954 748.813 65.8648C748.462 65.3096 747.769 65.0139 746.734 64.9777L746.761 64.2012C747.547 64.3027 748.31 64.3663 749.049 64.3922C749.863 64.4206 750.641 64.4107 751.383 64.3626C752.126 64.2898 752.809 64.1779 753.431 64.0269L752.914 78.8178C752.889 79.5327 752.916 80.1877 752.994 80.7828C753.072 81.3779 753.29 81.8545 753.647 82.2125C754.005 82.5705 754.591 82.7638 755.404 82.7922C756.267 82.8223 757.04 82.5901 757.724 82.0957C758.432 81.6021 758.999 80.9185 759.425 80.0448C759.85 79.1711 760.082 78.1796 760.121 77.0703L760.413 68.7134C760.451 67.604 760.295 66.7841 759.943 66.2535C759.592 65.6982 758.899 65.4025 757.864 65.3664L757.891 64.5899C758.677 64.6914 759.44 64.755 760.18 64.7808C760.993 64.8093 761.771 64.7994 762.513 64.7513C763.256 64.6785 763.939 64.5666 764.561 64.4155ZM776.227 65.2302L776.2 66.0067C775.731 65.9903 775.345 66.0879 775.042 66.2995C774.738 66.511 774.703 66.8183 774.936 67.2213L784.268 81.986C784.618 82.5659 784.948 83.0094 785.258 83.3164C785.594 83.5996 785.982 83.7982 786.422 83.9123L786.395 84.6889C786.1 84.6539 785.657 84.6137 785.066 84.5684C784.501 84.4993 783.923 84.4545 783.331 84.4338C782.517 84.4054 781.666 84.4003 780.777 84.4186C779.889 84.4123 779.235 84.4141 778.815 84.4242L778.842 83.6476C779.335 83.6649 779.733 83.5677 780.037 83.3562C780.341 83.12 780.364 82.8123 780.106 82.433L770.773 67.6683C770.328 66.9864 769.962 66.517 769.675 66.2601C769.413 65.9795 769.061 65.8068 768.619 65.742L768.646 64.9654C768.966 65.0013 769.433 65.0546 770.048 65.1254C770.663 65.1716 771.267 65.205 771.858 65.2257C772.672 65.2541 773.498 65.2706 774.337 65.2752C775.202 65.2561 775.832 65.241 776.227 65.2302ZM776.295 74.9325C776.295 74.9325 776.305 75.0068 776.325 75.1556C776.369 75.3052 776.412 75.4672 776.456 75.6415C776.524 75.8166 776.558 75.9042 776.558 75.9042L773.891 79.1061C773.195 79.9457 772.811 80.6974 772.739 81.3613C772.667 82.0005 772.872 82.5013 773.353 82.8636C773.834 83.2259 774.504 83.4591 775.365 83.5632L775.339 84.3028C774.896 84.2626 774.391 84.2327 773.824 84.2129C773.258 84.1684 772.704 84.1367 772.161 84.1178C771.62 84.0742 771.152 84.0455 770.757 84.0317C770.19 84.0119 769.685 84.0066 769.24 84.0158C768.796 84.0003 768.389 84.0107 768.017 84.0471L768.043 83.3076C768.539 83.2262 769.041 82.9969 769.548 82.6197C770.08 82.2187 770.707 81.5988 771.427 80.7601L776.295 74.9325ZM786.211 65.5788L786.185 66.3184C785.688 66.3997 785.149 66.6524 784.567 67.0763C784.009 67.5011 783.42 68.1099 782.8 68.9028L778.388 74.3762C778.388 74.3762 778.366 74.3013 778.322 74.1517C778.303 73.9783 778.272 73.8168 778.228 73.6671C778.184 73.5175 778.161 73.4427 778.161 73.4427L780.836 70.0189C781.431 69.2252 781.812 68.5598 781.979 68.0226C782.146 67.4854 782.075 67.051 781.765 66.7194C781.456 66.3877 780.858 66.1817 779.973 66.1014L779.999 65.3619C780.663 65.4098 781.254 65.4551 781.771 65.4978C782.312 65.5414 782.879 65.5735 783.471 65.5942C784.038 65.614 784.543 65.6193 784.988 65.6101C785.433 65.601 785.84 65.5905 786.211 65.5788ZM805.764 65.8544L805.222 81.3479C805.184 82.4572 805.34 83.2895 805.691 83.8448C806.067 84.3762 806.761 84.6596 807.771 84.6949L807.744 85.4714C806.982 85.3708 806.22 85.3071 805.455 85.2804C804.642 85.252 803.864 85.2619 803.122 85.31C802.38 85.3581 801.697 85.4701 801.074 85.6457L801.215 81.6152C800.547 83.0728 799.647 84.1027 798.515 84.7049C797.409 85.2833 796.252 85.5514 795.044 85.5092C794.132 85.4774 793.36 85.3147 792.729 85.0211C792.096 84.7522 791.578 84.4009 791.174 83.9672C790.747 83.4587 790.461 82.8193 790.315 82.0491C790.17 81.2542 790.118 80.2651 790.159 79.0818L790.485 69.7635C790.524 68.6542 790.367 67.8342 790.015 67.3036C789.665 66.7484 788.971 66.4527 787.936 66.4165L787.963 65.64C788.749 65.7415 789.512 65.8052 790.252 65.831C791.065 65.8594 791.843 65.8495 792.585 65.8014C793.328 65.7286 794.011 65.6167 794.633 65.4657L794.117 80.2567C794.092 80.9716 794.118 81.6266 794.196 82.2216C794.274 82.8167 794.492 83.2933 794.85 83.6513C795.207 84.0093 795.793 84.2026 796.607 84.231C797.469 84.2611 798.243 84.029 798.926 83.5345C799.635 83.0409 800.202 82.3573 800.627 81.4836C801.052 80.6099 801.284 79.6184 801.323 78.5091L801.615 70.1522C801.654 69.0429 801.497 68.2229 801.146 67.6923C800.795 67.1371 800.102 66.8414 799.066 66.8052L799.093 66.0287C799.88 66.1302 800.643 66.1938 801.382 66.2197C802.196 66.2481 802.973 66.2382 803.716 66.1901C804.459 66.1173 805.141 66.0054 805.764 65.8544ZM822.107 66.314C822.821 66.339 823.42 66.508 823.903 66.821C824.41 67.1349 824.779 67.5303 825.009 68.0073C825.265 68.4605 825.383 68.9706 825.363 69.5376C825.338 70.2525 825.095 70.8611 824.633 71.3632C824.197 71.8416 823.621 72.0684 822.906 72.0434C822.29 72.0219 821.766 71.8185 821.335 71.4332C820.929 71.0488 820.737 70.5361 820.76 69.8952C820.779 69.3528 820.93 68.9015 821.214 68.5412C821.524 68.1571 821.867 67.8606 822.245 67.6516C822.005 67.4458 821.712 67.3492 821.367 67.3618C820.7 67.3632 820.076 67.5636 819.494 67.9628C818.914 68.3375 818.415 68.8384 817.998 69.4655C817.582 70.0681 817.251 70.7229 817.004 71.43C816.757 72.1372 816.623 72.7989 816.601 73.4152L816.304 81.92C816.262 83.1279 816.567 83.9531 817.218 84.3954C817.869 84.8131 818.787 85.0426 819.97 85.0839L819.943 85.8604C819.377 85.816 818.564 85.7629 817.505 85.7012C816.471 85.6158 815.375 85.5528 814.217 85.5123C813.329 85.4814 812.441 85.475 811.552 85.4933C810.663 85.487 809.985 85.488 809.515 85.4963L809.543 84.7197C810.504 84.7533 811.188 84.5921 811.596 84.2361C812.028 83.881 812.262 83.1857 812.298 82.1503L812.703 70.5394C812.742 69.4301 812.586 68.6101 812.234 68.0795C811.883 67.5243 811.19 67.2286 810.155 67.1924L810.182 66.4159C810.968 66.5174 811.731 66.5811 812.47 66.6069C813.309 66.6362 814.086 66.6263 814.804 66.5773C815.547 66.5045 816.23 66.3926 816.852 66.2416L816.703 70.494C817.024 69.7894 817.443 69.1129 817.959 68.4646C818.475 67.8162 819.086 67.2945 819.791 66.8995C820.496 66.4799 821.268 66.2847 822.107 66.314ZM844.391 67.6105L844.366 68.3501C843.895 68.4077 843.455 68.6391 843.045 69.0444C842.637 69.4251 842.231 70.102 841.827 71.0751L835.519 86.3303L834.6 87.1867L827.985 69.8883C827.55 68.9106 827.114 68.3153 826.677 68.1026C826.266 67.8661 825.912 67.7427 825.617 67.7324L825.644 66.9558C826.257 67.0513 826.909 67.1358 827.597 67.2092C828.287 67.2579 829.001 67.2952 829.741 67.321C830.579 67.3503 831.418 67.3549 832.258 67.3349C833.122 67.3157 833.925 67.2944 834.666 67.2709L834.639 68.0474C834.048 68.0268 833.516 68.0576 833.044 68.1398C832.598 68.1983 832.294 68.4221 832.132 68.8114C831.996 69.1769 832.097 69.8221 832.435 70.7471L836.626 82.1854L836.363 82.2873L840.444 72.5077C840.848 71.5346 841.024 70.7509 840.97 70.1567C840.918 69.5378 840.675 69.0727 840.242 68.7614C839.809 68.4254 839.162 68.2177 838.301 68.1383L838.327 67.3987C838.745 67.438 839.127 67.476 839.471 67.5127C839.841 67.5256 840.198 67.5505 840.542 67.5872C840.887 67.5992 841.232 67.6113 841.577 67.6233C842.12 67.6423 842.625 67.6476 843.095 67.6393C843.588 67.6318 844.021 67.6223 844.391 67.6105ZM835.519 86.3303L834.066 89.7597C833.798 90.3673 833.521 90.876 833.235 91.2856C832.974 91.6961 832.691 92.0317 832.386 92.2926C832.004 92.6248 831.539 92.8554 830.992 92.9843C830.444 93.1133 829.899 93.1683 829.357 93.1494C828.839 93.1313 828.35 93.0155 827.888 92.8019C827.45 92.6139 827.09 92.3298 826.807 91.9497C826.524 91.5696 826.392 91.1083 826.411 90.566C826.434 89.9251 826.661 89.4147 827.094 89.0349C827.527 88.6551 828.089 88.4773 828.779 88.5014C829.395 88.5229 829.907 88.7012 830.315 89.0363C830.722 89.3961 830.914 89.8964 830.892 90.5374C830.876 90.9811 830.74 91.3589 830.482 91.6708C830.249 91.9835 829.945 92.2197 829.569 92.3793C829.642 92.4065 829.716 92.4215 829.789 92.424C829.863 92.4266 829.925 92.4288 829.974 92.4305C830.665 92.4546 831.289 92.2419 831.848 91.7925C832.406 91.3677 832.887 90.6564 833.292 89.6586L834.747 86.1552L835.519 86.3303Z" fill="white"/>
<path d="M1010.36 72.8881C1012.53 72.9638 1014.21 73.6765 1015.4 75.0261C1016.58 76.3757 1017.13 78.4679 1017.03 81.3029L1004.27 80.8574L1004.22 80.1522L1013.13 80.4634C1013.2 79.2563 1013.14 78.1436 1012.95 77.1251C1012.77 76.082 1012.45 75.2441 1012.01 74.6115C1011.56 73.9788 1010.95 73.6491 1010.19 73.6225C1009.13 73.5854 1008.18 74.1201 1007.36 75.2266C1006.55 76.3092 1006.02 78.0801 1005.76 80.5392L1005.87 80.728C1005.83 81.0723 1005.79 81.4535 1005.75 81.8717C1005.72 82.2653 1005.69 82.6593 1005.68 83.0537C1005.62 84.7547 1005.83 86.1935 1006.3 87.3702C1006.78 88.5469 1007.43 89.4457 1008.24 90.0666C1009.06 90.6629 1009.9 90.9761 1010.77 91.0062C1011.43 91.0295 1012.08 90.9532 1012.7 90.7775C1013.35 90.5781 1013.96 90.2417 1014.55 89.7685C1015.13 89.2706 1015.66 88.5857 1016.14 87.7137L1016.87 88.0353C1016.54 88.8632 1016.06 89.6731 1015.41 90.465C1014.77 91.257 1013.96 91.8951 1012.98 92.3792C1012 92.8387 1010.87 93.046 1009.59 93.0012C1007.86 92.941 1006.37 92.5064 1005.11 91.6974C1003.86 90.8638 1002.91 89.7077 1002.27 88.2291C1001.63 86.7506 1001.35 85.0129 1001.42 83.0161C1001.5 80.8221 1001.92 78.9611 1002.69 77.433C1003.46 75.9049 1004.5 74.7565 1005.81 73.9878C1007.14 73.1952 1008.66 72.8287 1010.36 72.8881ZM1032.66 73.6666C1033.64 73.7011 1034.44 73.8646 1035.05 74.1573C1035.68 74.4262 1036.2 74.7898 1036.6 75.2482C1037.03 75.7321 1037.31 76.3468 1037.46 77.0924C1037.63 77.8388 1037.7 78.8407 1037.65 80.0979L1037.31 90.0079C1037.27 91.0432 1037.44 91.7527 1037.82 92.1362C1038.23 92.5206 1038.91 92.7296 1039.88 92.7632L1039.85 93.5397C1039.43 93.5004 1038.78 93.453 1037.89 93.3973C1037.01 93.317 1036.13 93.2618 1035.27 93.2317C1034.43 93.2024 1033.59 93.1978 1032.75 93.2178C1031.94 93.2141 1031.32 93.2172 1030.9 93.2272L1030.93 92.4507C1031.77 92.48 1032.36 92.3158 1032.72 91.958C1033.08 91.6003 1033.28 90.9038 1033.31 89.8684L1033.7 78.9231C1033.72 78.2082 1033.68 77.5651 1033.58 76.9938C1033.47 76.3978 1033.23 75.9204 1032.85 75.5615C1032.47 75.178 1031.88 74.9724 1031.09 74.9449C1030.18 74.913 1029.36 75.1435 1028.63 75.6362C1027.92 76.1298 1027.34 76.8253 1026.89 77.7228C1026.46 78.5964 1026.23 79.588 1026.19 80.6973L1025.88 89.6088C1025.84 90.6442 1025.99 91.3528 1026.32 91.7346C1026.68 92.1173 1027.27 92.3229 1028.08 92.3513L1028.05 93.1278C1027.66 93.0894 1027.06 93.0436 1026.24 92.9906C1025.46 92.9137 1024.63 92.8602 1023.77 92.8301C1022.93 92.8008 1022.05 92.7949 1021.14 92.8124C1020.23 92.8052 1019.55 92.8062 1019.1 92.8153L1019.13 92.0388C1020.09 92.0724 1020.78 91.9112 1021.18 91.5551C1021.62 91.2 1021.85 90.5048 1021.89 89.4694L1022.29 77.8585C1022.33 76.7491 1022.17 75.9292 1021.82 75.3986C1021.47 74.8433 1020.78 74.5476 1019.74 74.5115L1019.77 73.7349C1020.56 73.8364 1021.32 73.9001 1022.06 73.9259C1022.9 73.9552 1023.68 73.9453 1024.39 73.8964C1025.14 73.8236 1025.82 73.7117 1026.44 73.5606L1026.3 77.5912C1026.99 76.0851 1027.91 75.0434 1029.04 74.4658C1030.19 73.8891 1031.4 73.6227 1032.66 73.6666ZM1039.22 100.478L1039.24 99.8863C1040.67 99.887 1041.78 99.3209 1042.56 98.1881C1043.34 97.0799 1043.76 95.4905 1043.83 93.4197L1044.35 78.6288C1044.39 77.5194 1044.23 76.6995 1043.88 76.1689C1043.53 75.6136 1042.84 75.3179 1041.8 75.2818L1041.83 74.5052C1042.62 74.6067 1043.38 74.6704 1044.12 74.6962C1044.93 74.7246 1045.71 74.7148 1046.45 74.6667C1047.19 74.5939 1047.88 74.482 1048.5 74.3309L1047.96 89.8245C1047.91 91.1064 1047.79 92.2866 1047.58 93.3653C1047.37 94.4439 1047.05 95.4078 1046.62 96.2568C1046.2 97.1058 1045.65 97.852 1044.99 98.4952C1044.35 99.1146 1043.54 99.6047 1042.57 99.9656C1041.62 100.352 1040.5 100.523 1039.22 100.478ZM1046.48 65.338C1047.25 65.3647 1047.88 65.6336 1048.38 66.1447C1048.88 66.6312 1049.12 67.2318 1049.09 67.9467C1049.07 68.6616 1048.79 69.2566 1048.25 69.7315C1047.72 70.1818 1047.07 70.3936 1046.31 70.3669C1045.54 70.3403 1044.91 70.0837 1044.41 69.5972C1043.91 69.0861 1043.67 68.4731 1043.69 67.7582C1043.72 67.0433 1044 66.4607 1044.53 66.0104C1045.07 65.5355 1045.72 65.3113 1046.48 65.338ZM1061.57 74.6763C1063.22 74.7339 1064.68 75.1303 1065.93 75.8653C1067.19 76.6003 1068.18 77.7207 1068.89 79.2265C1069.6 80.7323 1069.92 82.6808 1069.83 85.072C1069.75 87.4632 1069.3 89.385 1068.48 90.8374C1067.67 92.2652 1066.61 93.3018 1065.3 93.9473C1064 94.5681 1062.52 94.8497 1060.87 94.792C1059.24 94.7352 1057.78 94.3512 1056.5 93.6399C1055.22 92.9041 1054.22 91.7956 1053.51 90.3144C1052.82 88.8095 1052.52 86.8614 1052.6 84.4702C1052.68 82.079 1053.12 80.1568 1053.91 78.7035C1054.73 77.2511 1055.8 76.2026 1057.13 75.558C1058.46 74.9133 1059.94 74.6194 1061.57 74.6763ZM1061.54 75.4158C1060.26 75.371 1059.19 76.074 1058.32 77.5247C1057.46 78.9507 1056.97 81.3154 1056.85 84.6187C1056.74 87.9221 1057.06 90.3151 1057.82 91.798C1058.59 93.2562 1059.61 94.0077 1060.89 94.0524C1062.15 94.0964 1063.21 93.4176 1064.07 92.0162C1064.96 90.591 1065.46 88.2268 1065.58 84.9235C1065.7 81.6202 1065.36 79.2266 1064.57 77.7429C1063.81 76.2354 1062.8 75.4597 1061.54 75.4158ZM1089.91 76.1843L1089.88 76.9238C1089.41 76.9814 1088.97 77.2129 1088.56 77.6182C1088.16 77.9988 1087.75 78.6757 1087.35 79.6489L1081.04 94.904L1080.12 95.7605L1073.5 78.4621C1073.07 77.4843 1072.63 76.8891 1072.2 76.6764C1071.79 76.4399 1071.43 76.3165 1071.14 76.3061L1071.16 75.5296C1071.78 75.6251 1072.43 75.7095 1073.12 75.7829C1073.81 75.8317 1074.52 75.869 1075.26 75.8948C1076.1 75.9241 1076.94 75.9287 1077.78 75.9087C1078.64 75.8895 1079.44 75.8682 1080.19 75.8447L1080.16 76.6212C1079.57 76.6005 1079.04 76.6313 1078.56 76.7136C1078.12 76.772 1077.81 76.9959 1077.65 77.3852C1077.52 77.7506 1077.62 78.3959 1077.95 79.3209L1082.15 90.7592L1081.88 90.8611L1085.96 81.0815C1086.37 80.1084 1086.54 79.3247 1086.49 78.7304C1086.44 78.1116 1086.19 77.6465 1085.76 77.3352C1085.33 76.9992 1084.68 76.7915 1083.82 76.7121L1083.85 75.9725C1084.26 76.0118 1084.65 76.0498 1084.99 76.0865C1085.36 76.0994 1085.72 76.1242 1086.06 76.1609C1086.41 76.173 1086.75 76.185 1087.1 76.1971C1087.64 76.216 1088.14 76.2213 1088.61 76.213C1089.11 76.2056 1089.54 76.196 1089.91 76.1843ZM1081.04 94.904L1079.59 98.3334C1079.32 98.9411 1079.04 99.4498 1078.75 99.8594C1078.49 100.27 1078.21 100.605 1077.9 100.866C1077.52 101.199 1077.06 101.429 1076.51 101.558C1075.96 101.687 1075.42 101.742 1074.88 101.723C1074.36 101.705 1073.87 101.589 1073.41 101.376C1072.97 101.188 1072.61 100.904 1072.33 100.523C1072.04 100.143 1071.91 99.6821 1071.93 99.1398C1071.95 98.4988 1072.18 97.9885 1072.61 97.6087C1073.05 97.2289 1073.61 97.051 1074.3 97.0751C1074.91 97.0967 1075.43 97.275 1075.83 97.6101C1076.24 97.9698 1076.43 98.4702 1076.41 99.1111C1076.4 99.5549 1076.26 99.9327 1076 100.245C1075.77 100.557 1075.46 100.793 1075.09 100.953C1075.16 100.98 1075.23 100.995 1075.31 100.998C1075.38 101 1075.44 101.003 1075.49 101.004C1076.18 101.028 1076.81 100.816 1077.37 100.366C1077.92 99.9415 1078.41 99.2302 1078.81 98.2324L1080.27 94.729L1081.04 94.904Z" fill="white"/>
<path d="M1256.21 81.4734C1258.38 81.5492 1260.06 82.2618 1261.25 83.6114C1262.43 84.961 1262.98 87.0532 1262.88 89.8882L1250.12 89.4427L1250.07 88.7375L1258.98 89.0487C1259.05 87.8417 1258.99 86.7289 1258.8 85.7104C1258.62 84.6673 1258.3 83.8294 1257.86 83.1968C1257.41 82.5641 1256.8 82.2345 1256.04 82.2078C1254.98 82.1708 1254.03 82.7055 1253.21 83.8119C1252.4 84.8945 1251.87 86.6654 1251.61 89.1246L1251.72 89.3133C1251.68 89.6576 1251.64 90.0388 1251.6 90.457C1251.57 90.8506 1251.54 91.2446 1251.53 91.639C1251.47 93.34 1251.68 94.7788 1252.15 95.9555C1252.63 97.1322 1253.28 98.031 1254.09 98.652C1254.91 99.2482 1255.75 99.5614 1256.62 99.5915C1257.28 99.6148 1257.93 99.5386 1258.55 99.3629C1259.2 99.1634 1259.81 98.827 1260.4 98.3538C1260.98 97.8559 1261.51 97.171 1261.99 96.299L1262.72 96.6207C1262.39 97.4485 1261.91 98.2584 1261.26 99.0504C1260.62 99.8424 1259.81 100.48 1258.83 100.965C1257.85 101.424 1256.72 101.631 1255.44 101.587C1253.71 101.526 1252.22 101.092 1250.96 100.283C1249.71 99.4491 1248.76 98.293 1248.12 96.8145C1247.48 95.3359 1247.2 93.5983 1247.27 91.6015C1247.35 89.4075 1247.77 87.5464 1248.54 86.0183C1249.31 84.4903 1250.35 83.3418 1251.66 82.5731C1252.99 81.7806 1254.51 81.414 1256.21 81.4734ZM1272.44 82.5582L1272.41 83.3348C1271.94 83.3184 1271.55 83.416 1271.25 83.6275C1270.95 83.8391 1270.91 84.1463 1271.14 84.5494L1280.48 99.3141C1280.83 99.894 1281.16 100.337 1281.47 100.644C1281.8 100.928 1282.19 101.126 1282.63 101.24L1282.6 102.017C1282.31 101.982 1281.87 101.942 1281.27 101.897C1280.71 101.827 1280.13 101.783 1279.54 101.762C1278.73 101.733 1277.87 101.728 1276.99 101.747C1276.1 101.74 1275.44 101.742 1275.02 101.752L1275.05 100.976C1275.54 100.993 1275.94 100.896 1276.24 100.684C1276.55 100.448 1276.57 100.14 1276.31 99.7611L1266.98 84.9964C1266.54 84.3144 1266.17 83.845 1265.88 83.5882C1265.62 83.3076 1265.27 83.1348 1264.83 83.07L1264.85 82.2935C1265.17 82.3294 1265.64 82.3827 1266.26 82.4535C1266.87 82.4997 1267.48 82.5331 1268.07 82.5538C1268.88 82.5822 1269.71 82.5987 1270.55 82.6033C1271.41 82.5841 1272.04 82.5691 1272.44 82.5582ZM1272.5 92.2605C1272.5 92.2605 1272.51 92.3349 1272.53 92.4837C1272.58 92.6333 1272.62 92.7953 1272.66 92.9696C1272.73 93.1447 1272.77 93.2323 1272.77 93.2323L1270.1 96.4342C1269.4 97.2737 1269.02 98.0255 1268.95 98.6893C1268.88 99.3285 1269.08 99.8293 1269.56 100.192C1270.04 100.554 1270.71 100.787 1271.57 100.891L1271.55 101.631C1271.1 101.591 1270.6 101.561 1270.03 101.541C1269.47 101.496 1268.91 101.465 1268.37 101.446C1267.83 101.402 1267.36 101.374 1266.97 101.36C1266.4 101.34 1265.89 101.335 1265.45 101.344C1265 101.328 1264.6 101.339 1264.23 101.375L1264.25 100.636C1264.75 100.554 1265.25 100.325 1265.76 99.9477C1266.29 99.5467 1266.91 98.9269 1267.64 98.0882L1272.5 92.2605ZM1282.42 82.9069L1282.39 83.6464C1281.9 83.7278 1281.36 83.9805 1280.77 84.4044C1280.22 84.8292 1279.63 85.438 1279.01 86.2309L1274.6 91.7042C1274.6 91.7042 1274.57 91.6294 1274.53 91.4798C1274.51 91.3064 1274.48 91.1448 1274.44 90.9952C1274.39 90.8456 1274.37 90.7708 1274.37 90.7708L1277.04 87.347C1277.64 86.5533 1278.02 85.8878 1278.19 85.3507C1278.35 84.8135 1278.28 84.3791 1277.97 84.0474C1277.66 83.7158 1277.07 83.5098 1276.18 83.4295L1276.21 82.6899C1276.87 82.7378 1277.46 82.7832 1277.98 82.8259C1278.52 82.8695 1279.09 82.9016 1279.68 82.9223C1280.25 82.9421 1280.75 82.9474 1281.2 82.9382C1281.64 82.9291 1282.05 82.9186 1282.42 82.9069ZM1291.06 82.8015L1290.27 105.469C1290.23 106.553 1290.52 107.291 1291.12 107.683C1291.72 108.074 1292.57 108.289 1293.65 108.326L1293.63 109.103C1293.06 109.058 1292.27 108.994 1291.26 108.909C1290.25 108.849 1289.17 108.799 1288.01 108.759C1287.2 108.73 1286.39 108.715 1285.6 108.712C1284.81 108.734 1284.21 108.749 1283.79 108.759L1283.82 107.983C1284.68 108.013 1285.29 107.862 1285.65 107.529C1286.03 107.221 1286.23 106.611 1286.27 105.699L1286.91 87.0993C1286.95 85.99 1286.8 85.1701 1286.45 84.6395C1286.09 84.0842 1285.4 83.7885 1284.37 83.7523L1284.39 82.9758C1285.18 83.0773 1285.94 83.141 1286.68 83.1668C1287.5 83.1952 1288.27 83.1854 1289.02 83.1372C1289.76 83.0644 1290.44 82.9525 1291.06 82.8015ZM1296.95 82.8959C1298.23 82.9406 1299.36 83.3381 1300.35 84.0883C1301.36 84.8147 1302.14 85.8662 1302.68 87.2427C1303.23 88.6192 1303.46 90.3181 1303.39 92.3396C1303.34 93.8187 1303.12 95.2178 1302.73 96.5369C1302.34 97.8314 1301.77 98.9715 1301.02 99.9573C1300.29 100.919 1299.39 101.678 1298.31 102.232C1297.23 102.762 1295.96 103.002 1294.51 102.951C1293.42 102.913 1292.47 102.645 1291.65 102.148C1290.85 101.651 1290.29 101.039 1289.97 100.312L1290.36 99.8073C1290.66 100.435 1291.08 100.956 1291.64 101.37C1292.21 101.785 1292.93 102.008 1293.8 102.038C1295.08 102.082 1296.09 101.711 1296.84 100.922C1297.6 100.11 1298.16 99.0061 1298.51 97.6113C1298.85 96.1918 1299.06 94.5823 1299.12 92.7827C1299.19 90.7613 1299.1 89.1291 1298.85 87.8862C1298.59 86.6186 1298.18 85.691 1297.61 85.1034C1297.04 84.4911 1296.33 84.1703 1295.5 84.141C1294.39 84.1023 1293.36 84.5107 1292.42 85.3663C1291.5 86.2228 1290.91 87.535 1290.65 89.3031L1290.31 88.5136C1290.69 86.676 1291.48 85.272 1292.68 84.3017C1293.9 83.3077 1295.32 82.8391 1296.95 82.8959ZM1313.1 74.0562L1312.21 99.6076C1312.17 100.643 1312.34 101.352 1312.72 101.736C1313.13 102.12 1313.81 102.329 1314.78 102.363L1314.75 103.139C1314.33 103.1 1313.68 103.053 1312.79 102.997C1311.9 102.917 1311.02 102.861 1310.13 102.83C1309.24 102.799 1308.34 102.792 1307.43 102.81C1306.54 102.803 1305.87 102.805 1305.43 102.814L1305.46 102.038C1306.42 102.071 1307.1 101.91 1307.51 101.554C1307.94 101.199 1308.18 100.504 1308.21 99.4681L1308.95 78.354C1308.99 77.2447 1308.83 76.4247 1308.48 75.8941C1308.13 75.3389 1307.44 75.0432 1306.4 75.007L1306.43 74.2305C1307.21 74.332 1307.98 74.3957 1308.72 74.4215C1309.53 74.4499 1310.31 74.44 1311.05 74.3919C1311.79 74.3191 1312.48 74.2072 1313.1 74.0562ZM1326.09 83.9135C1327.74 83.9712 1329.19 84.3676 1330.45 85.1026C1331.71 85.8376 1332.7 86.958 1333.41 88.4638C1334.12 89.9695 1334.44 91.918 1334.35 94.3092C1334.27 96.7005 1333.82 98.6223 1333 100.075C1332.19 101.502 1331.13 102.539 1329.82 103.185C1328.52 103.805 1327.04 104.087 1325.39 104.029C1323.76 103.972 1322.3 103.588 1321.02 102.877C1319.74 102.141 1318.74 101.033 1318.03 99.5517C1317.34 98.0468 1317.04 96.0987 1317.12 93.7075C1317.2 91.3163 1317.64 89.3941 1318.43 87.9408C1319.25 86.4884 1320.32 85.4399 1321.65 84.7952C1322.98 84.1506 1324.46 83.8567 1326.09 83.9135ZM1326.06 84.6531C1324.78 84.6083 1323.71 85.3113 1322.84 86.762C1321.98 88.188 1321.49 90.5527 1321.37 93.856C1321.26 97.1593 1321.58 99.5524 1322.34 101.035C1323.11 102.493 1324.13 103.245 1325.41 103.29C1326.67 103.334 1327.73 102.655 1328.59 101.253C1329.48 99.8283 1329.98 97.4641 1330.1 94.1608C1330.21 90.8574 1329.88 88.4639 1329.09 86.9802C1328.33 85.4727 1327.32 84.697 1326.06 84.6531ZM1349.23 84.7215C1349.94 84.7465 1350.54 84.9155 1351.02 85.2285C1351.53 85.5424 1351.9 85.9378 1352.13 86.4148C1352.38 86.868 1352.5 87.3781 1352.48 87.9451C1352.46 88.66 1352.21 89.2686 1351.75 89.7707C1351.32 90.2491 1350.74 90.4759 1350.03 90.4509C1349.41 90.4294 1348.89 90.226 1348.45 89.8407C1348.05 89.4563 1347.86 88.9436 1347.88 88.3027C1347.9 87.7603 1348.05 87.309 1348.33 86.9487C1348.64 86.5646 1348.99 86.2681 1349.36 86.0591C1349.12 85.8533 1348.83 85.7567 1348.49 85.7693C1347.82 85.7707 1347.2 85.9711 1346.61 86.3703C1346.03 86.745 1345.53 87.2459 1345.12 87.873C1344.7 88.4756 1344.37 89.1304 1344.12 89.8375C1343.88 90.5447 1343.74 91.2064 1343.72 91.8227L1343.42 100.328C1343.38 101.535 1343.69 102.361 1344.34 102.803C1344.99 103.221 1345.91 103.45 1347.09 103.491L1347.06 104.268C1346.5 104.223 1345.68 104.17 1344.62 104.109C1343.59 104.023 1342.49 103.96 1341.34 103.92C1340.45 103.889 1339.56 103.883 1338.67 103.901C1337.78 103.894 1337.1 103.895 1336.63 103.904L1336.66 103.127C1337.62 103.161 1338.31 103 1338.71 102.644C1339.15 102.288 1339.38 101.593 1339.42 100.558L1339.82 88.9469C1339.86 87.8376 1339.7 87.0176 1339.35 86.487C1339 85.9318 1338.31 85.6361 1337.27 85.5999L1337.3 84.8234C1338.09 84.9249 1338.85 84.9886 1339.59 85.0144C1340.43 85.0437 1341.21 85.0338 1341.92 84.9848C1342.67 84.912 1343.35 84.8001 1343.97 84.6491L1343.82 88.9015C1344.14 88.1969 1344.56 87.5204 1345.08 86.8721C1345.59 86.2237 1346.2 85.702 1346.91 85.307C1347.62 84.8874 1348.39 84.6922 1349.23 84.7215ZM1362.56 85.1871C1364.73 85.2629 1366.41 85.9755 1367.59 87.3251C1368.78 88.6747 1369.32 90.7669 1369.23 93.6019L1356.47 93.1564L1356.42 92.4512L1365.33 92.7624C1365.4 91.5554 1365.34 90.4426 1365.15 89.4241C1364.96 88.381 1364.65 87.5431 1364.2 86.9105C1363.75 86.2778 1363.15 85.9482 1362.38 85.9215C1361.32 85.8845 1360.38 86.4192 1359.55 87.5256C1358.75 88.6082 1358.22 90.3791 1357.96 92.8383L1358.06 93.027C1358.03 93.3713 1357.99 93.7525 1357.95 94.1707C1357.91 94.5643 1357.89 94.9583 1357.87 95.3527C1357.81 97.0537 1358.02 98.4925 1358.5 99.6692C1358.98 100.846 1359.62 101.745 1360.44 102.366C1361.26 102.962 1362.1 103.275 1362.96 103.305C1363.63 103.328 1364.27 103.252 1364.9 103.077C1365.54 102.877 1366.16 102.541 1366.75 102.067C1367.33 101.57 1367.86 100.885 1368.33 100.013L1369.06 100.334C1368.74 101.162 1368.25 101.972 1367.61 102.764C1366.96 103.556 1366.15 104.194 1365.17 104.678C1364.19 105.138 1363.06 105.345 1361.78 105.3C1360.06 105.24 1358.57 104.805 1357.31 103.996C1356.06 103.163 1355.11 102.007 1354.47 100.528C1353.83 99.0496 1353.55 97.3119 1353.62 95.3152C1353.69 93.1212 1354.12 91.2601 1354.88 89.732C1355.65 88.2039 1356.69 87.0555 1358 86.2868C1359.34 85.4943 1360.86 85.1277 1362.56 85.1871Z" fill="white"/>
</svg>
