<svg width="200" height="31" viewBox="0 0 200 31" fill="none" xmlns="http://www.w3.org/2000/svg">
<path d="M15.4999 2.58325L19.4912 10.6691L28.4166 11.9737L21.9583 18.2641L23.4824 27.1508L15.4999 22.9528L7.51742 27.1508L9.04158 18.2641L2.58325 11.9737L11.5087 10.6691L15.4999 2.58325Z" fill="#FFB800" stroke="#FFB800" stroke-width="2" stroke-linecap="round" stroke-linejoin="round"/>
<path d="M57.4999 2.58325L61.4912 10.6691L70.4166 11.9737L63.9583 18.2641L65.4824 27.1508L57.4999 22.9528L49.5174 27.1508L51.0416 18.2641L44.5833 11.9737L53.5087 10.6691L57.4999 2.58325Z" fill="#FFB800" stroke="#FFB800" stroke-width="2" stroke-linecap="round" stroke-linejoin="round"/>
<path d="M100 2.58325L104.12 10.6691L113.333 11.9737L106.667 18.2641L108.24 27.1508L100 22.9528L91.7601 27.1508L93.3334 18.2641L86.6667 11.9737L95.8801 10.6691L100 2.58325Z" fill="#FFB800" stroke="#FFB800" stroke-width="2" stroke-linecap="round" stroke-linejoin="round"/>
<path d="M142.5 2.58325L146.491 10.6691L155.417 11.9737L148.958 18.2641L150.482 27.1508L142.5 22.9528L134.517 27.1508L136.042 18.2641L129.583 11.9737L138.509 10.6691L142.5 2.58325Z" fill="#FFB800" stroke="#FFB800" stroke-width="2" stroke-linecap="round" stroke-linejoin="round"/>
<path d="M184.5 2.58325L188.491 10.6691L197.417 11.9737L190.958 18.2641L192.482 27.1508L184.5 22.9528L176.517 27.1508L178.042 18.2641L171.583 11.9737L180.509 10.6691L184.5 2.58325Z" fill="#FFB800" stroke="#FFB800" stroke-width="2" stroke-linecap="round" stroke-linejoin="round"/>
</svg>
